<svg width="100" height="100" viewBox="0 0 100 100" fill="none" xmlns="http://www.w3.org/2000/svg">
<circle cx="50" cy="50" r="50" fill="#EF7F1B"/>
<path d="M59.1921 33.6678C59.1921 31.236 57.2251 29.2 54.7243 29.2H33.2003C30.6942 29.2 28.7324 31.2413 28.7324 33.6678V50.5217H59.1921V33.6678ZM28.7324 59.5586C28.7324 61.0205 29.432 62.3154 30.5138 63.1299C30.958 59.464 34.0866 56.6137 37.8703 56.6137C41.9577 56.6137 45.283 59.9391 45.283 64.0264H59.192V53.3655H28.7324V59.5586Z" fill="white"/>
<path d="M37.8697 59.4575C35.3504 59.4575 33.3008 61.5072 33.3008 64.0264C33.3008 66.5457 35.3505 68.5954 37.8697 68.5954C40.389 68.5954 42.4386 66.5458 42.4386 64.0264C42.4386 61.5071 40.3891 59.4575 37.8697 59.4575ZM66.8065 51.9436V38.3379H62.0353V58.1957C63.2953 57.2061 64.8814 56.6137 66.6042 56.6137C70.6351 56.6137 73.9225 59.8484 74.0127 63.8581C75.8893 63.3295 77.2652 61.6088 77.2652 59.5586V53.3656H68.2284C67.4431 53.3655 66.8065 52.7289 66.8065 51.9436Z" fill="white"/>
<path d="M77.2653 50.5219V47.3748C77.2653 42.8678 73.9657 39.1318 69.6504 38.4497V50.5219H77.2653Z" fill="white"/>
<path d="M66.6041 68.5953C69.1275 68.5953 71.1731 66.5497 71.1731 64.0264C71.1731 61.503 69.1275 59.4574 66.6041 59.4574C64.0807 59.4574 62.0352 61.503 62.0352 64.0264C62.0352 66.5497 64.0807 68.5953 66.6041 68.5953Z" fill="white"/>
</svg>
