<svg width="175" height="38" viewBox="0 0 175 38" fill="none" xmlns="http://www.w3.org/2000/svg">
<g id="&#208;&#154;&#208;&#190;&#208;&#188;&#208;&#177;&#208;&#190; &#226;&#132;&#150;2">
<mask id="path-1-outside-1_934_8774" maskUnits="userSpaceOnUse" x="0" y="0" width="175" height="38" fill="black">
<rect fill="white" width="175" height="38"/>
<path d="M30.3788 2.66295C29.6207 5.18849 28.989 7.31941 28.4837 9.05571C28.0099 10.7604 27.5519 12.1653 27.1098 13.2702C26.6676 14.3751 26.1622 15.2591 25.5937 15.922C25.0568 16.5534 24.3619 17.0427 23.5091 17.39C22.6563 17.7057 21.5509 17.9582 20.1927 18.1476V18.4318C21.5825 18.6527 22.7195 18.9211 23.6039 19.2368C24.5198 19.5525 25.2936 20.0418 25.9253 20.7047C26.557 21.3677 27.1256 22.299 27.6309 23.4986C28.1363 24.6982 28.6732 26.2609 29.2417 28.1866C29.8102 30.0808 30.5051 32.4643 31.3263 35.337H20.6191C19.7663 32.2117 19.0873 29.7335 18.5819 27.9025C18.0766 26.0715 17.587 24.714 17.1132 23.8301C16.671 22.9461 16.1341 22.3779 15.5024 22.1253C14.8707 21.8412 14.0337 21.6992 12.9914 21.6992L12.8493 15.0696C13.9232 15.0696 14.776 14.9118 15.4077 14.5961C16.0709 14.2488 16.6237 13.6332 17.0659 12.7493C17.508 11.8654 17.9344 10.6184 18.345 9.00836C18.7872 7.36676 19.3242 5.25163 19.9558 2.66295H30.3788ZM12.2808 2.66295V10.9025C12.2808 12.1021 12.1545 13.3491 11.9018 14.6435C11.6807 15.9062 11.3175 17.0901 10.8121 18.195C11.1911 19.2052 11.5228 20.3101 11.807 21.5097C12.1229 22.6778 12.2808 23.7354 12.2808 24.6824V35.337H2V2.66295H12.2808ZM15.3129 15.0696V21.6992H9.81719V15.0696H15.3129Z"/>
<path d="M47.8087 2C50.6197 2 52.9885 2.26834 54.9152 2.80501C56.8734 3.31012 58.4527 4.19406 59.6529 5.45682C60.8531 6.71959 61.7217 8.4559 62.2586 10.6657C62.7956 12.844 63.064 15.6221 63.064 19C63.064 22.3463 62.7956 25.1244 62.2586 27.3343C61.7217 29.5441 60.8531 31.2804 59.6529 32.5432C58.4527 33.8059 56.8734 34.7057 54.9152 35.2423C52.9885 35.7474 50.6197 36 47.8087 36C45.0292 36 42.6604 35.7474 40.7021 35.2423C38.7755 34.7057 37.212 33.8059 36.0118 32.5432C34.8116 31.2804 33.943 29.5441 33.4061 27.3343C32.8691 25.1244 32.6007 22.3463 32.6007 19C32.6007 15.6221 32.8691 12.844 33.4061 10.6657C33.943 8.4559 34.8116 6.71959 36.0118 5.45682C37.212 4.19406 38.7755 3.31012 40.7021 2.80501C42.6604 2.26834 45.0292 2 47.8087 2ZM47.8087 9.62395C46.64 9.62395 45.7399 9.87651 45.1082 10.3816C44.4765 10.8867 44.0343 11.818 43.7816 13.1755C43.5289 14.533 43.4026 16.4745 43.4026 19C43.4026 21.5255 43.5289 23.467 43.7816 24.8245C44.0343 26.182 44.4765 27.1133 45.1082 27.6184C45.7399 28.1235 46.64 28.376 47.8087 28.376C48.9773 28.376 49.8775 28.1235 50.5091 27.6184C51.1408 27.1133 51.583 26.182 51.8357 24.8245C52.0884 23.467 52.2147 21.5255 52.2147 19C52.2147 16.4745 52.0884 14.533 51.8357 13.1755C51.583 11.818 51.1408 10.8867 50.5091 10.3816C49.8775 9.87651 48.9773 9.62395 47.8087 9.62395Z"/>
<path d="M103.241 2.66295C105.547 2.66295 106.747 3.8468 106.842 6.21449L107.979 35.337H98.7403L97.7454 10.3343H97.0348L93.8131 27.0028C93.4973 29.0863 92.2023 30.1281 89.9282 30.1281H84.622C82.3795 30.1281 81.0687 29.0863 80.6897 27.0028L77.4207 10.3343H76.7101L75.9046 35.337H66.6662L67.8032 6.21449C67.8979 3.8468 69.0982 2.66295 71.4038 2.66295H80.2633C82.4742 2.66295 83.7692 3.72052 84.1482 5.83566L86.5171 18.8106C86.6434 19.5998 86.7382 20.4048 86.8013 21.2256C86.8961 22.0464 86.9751 22.8672 87.0382 23.688H87.4646C87.5594 22.8672 87.6383 22.0464 87.7015 21.2256C87.7962 20.4048 87.9068 19.5998 88.0331 18.8106L90.2599 5.83566C90.6389 3.72052 91.9496 2.66295 94.1921 2.66295H103.241Z"/>
<path d="M137.493 2.66295L136.735 10.0028H122.995V35.337H112.715V2.66295C114.799 2.50511 116.884 2.4104 118.968 2.37883C121.053 2.31569 123.027 2.28412 124.891 2.28412C127.133 2.28412 129.281 2.31569 131.334 2.37883C133.418 2.44197 135.471 2.53668 137.493 2.66295ZM126.264 15.3064C129.644 15.3064 132.313 15.6063 134.271 16.2061C136.261 16.8059 137.682 17.8319 138.535 19.2841C139.388 20.7363 139.814 22.7725 139.814 25.3928C139.814 27.3816 139.562 29.0548 139.056 30.4123C138.582 31.7382 137.84 32.7957 136.829 33.585C135.85 34.3426 134.587 34.8951 133.039 35.2423C131.523 35.558 129.723 35.7159 127.638 35.7159C125.585 35.7159 123.722 35.7001 122.048 35.6685C120.406 35.6685 118.858 35.637 117.405 35.5738C115.952 35.5107 114.483 35.4318 112.999 35.337L113.71 28.4708C114.499 28.5023 116.015 28.5339 118.258 28.5655C120.532 28.597 123.201 28.6128 126.264 28.6128C127.18 28.6128 127.875 28.5181 128.349 28.3287C128.823 28.1393 129.139 27.792 129.297 27.2869C129.454 26.7502 129.533 26.0084 129.533 25.0613C129.533 24.0826 129.454 23.3408 129.297 22.8357C129.139 22.3305 128.823 21.9833 128.349 21.7939C127.875 21.6045 127.18 21.5097 126.264 21.5097H113.662V15.3064H126.264Z"/>
<path d="M157.507 2C160.318 2 162.686 2.26834 164.613 2.80501C166.571 3.31012 168.151 4.19406 169.351 5.45682C170.551 6.71959 171.42 8.4559 171.957 10.6657C172.493 12.844 172.762 15.6221 172.762 19C172.762 22.3463 172.493 25.1244 171.957 27.3343C171.42 29.5441 170.551 31.2804 169.351 32.5432C168.151 33.8059 166.571 34.7057 164.613 35.2423C162.686 35.7474 160.318 36 157.507 36C154.727 36 152.358 35.7474 150.4 35.2423C148.473 34.7057 146.91 33.8059 145.71 32.5432C144.509 31.2804 143.641 29.5441 143.104 27.3343C142.567 25.1244 142.299 22.3463 142.299 19C142.299 15.6221 142.567 12.844 143.104 10.6657C143.641 8.4559 144.509 6.71959 145.71 5.45682C146.91 4.19406 148.473 3.31012 150.4 2.80501C152.358 2.26834 154.727 2 157.507 2ZM157.507 9.62395C156.338 9.62395 155.438 9.87651 154.806 10.3816C154.174 10.8867 153.732 11.818 153.48 13.1755C153.227 14.533 153.101 16.4745 153.101 19C153.101 21.5255 153.227 23.467 153.48 24.8245C153.732 26.182 154.174 27.1133 154.806 27.6184C155.438 28.1235 156.338 28.376 157.507 28.376C158.675 28.376 159.575 28.1235 160.207 27.6184C160.839 27.1133 161.281 26.182 161.534 24.8245C161.786 23.467 161.913 21.5255 161.913 19C161.913 16.4745 161.786 14.533 161.534 13.1755C161.281 11.818 160.839 10.8867 160.207 10.3816C159.575 9.87651 158.675 9.62395 157.507 9.62395Z"/>
</mask>
<path d="M30.3788 2.66295C29.6207 5.18849 28.989 7.31941 28.4837 9.05571C28.0099 10.7604 27.5519 12.1653 27.1098 13.2702C26.6676 14.3751 26.1622 15.2591 25.5937 15.922C25.0568 16.5534 24.3619 17.0427 23.5091 17.39C22.6563 17.7057 21.5509 17.9582 20.1927 18.1476V18.4318C21.5825 18.6527 22.7195 18.9211 23.6039 19.2368C24.5198 19.5525 25.2936 20.0418 25.9253 20.7047C26.557 21.3677 27.1256 22.299 27.6309 23.4986C28.1363 24.6982 28.6732 26.2609 29.2417 28.1866C29.8102 30.0808 30.5051 32.4643 31.3263 35.337H20.6191C19.7663 32.2117 19.0873 29.7335 18.5819 27.9025C18.0766 26.0715 17.587 24.714 17.1132 23.8301C16.671 22.9461 16.1341 22.3779 15.5024 22.1253C14.8707 21.8412 14.0337 21.6992 12.9914 21.6992L12.8493 15.0696C13.9232 15.0696 14.776 14.9118 15.4077 14.5961C16.0709 14.2488 16.6237 13.6332 17.0659 12.7493C17.508 11.8654 17.9344 10.6184 18.345 9.00836C18.7872 7.36676 19.3242 5.25163 19.9558 2.66295H30.3788ZM12.2808 2.66295V10.9025C12.2808 12.1021 12.1545 13.3491 11.9018 14.6435C11.6807 15.9062 11.3175 17.0901 10.8121 18.195C11.1911 19.2052 11.5228 20.3101 11.807 21.5097C12.1229 22.6778 12.2808 23.7354 12.2808 24.6824V35.337H2V2.66295H12.2808ZM15.3129 15.0696V21.6992H9.81719V15.0696H15.3129Z" stroke="white" stroke-width="3" mask="url(#path-1-outside-1_934_8774)"/>
<path d="M47.8087 2C50.6197 2 52.9885 2.26834 54.9152 2.80501C56.8734 3.31012 58.4527 4.19406 59.6529 5.45682C60.8531 6.71959 61.7217 8.4559 62.2586 10.6657C62.7956 12.844 63.064 15.6221 63.064 19C63.064 22.3463 62.7956 25.1244 62.2586 27.3343C61.7217 29.5441 60.8531 31.2804 59.6529 32.5432C58.4527 33.8059 56.8734 34.7057 54.9152 35.2423C52.9885 35.7474 50.6197 36 47.8087 36C45.0292 36 42.6604 35.7474 40.7021 35.2423C38.7755 34.7057 37.212 33.8059 36.0118 32.5432C34.8116 31.2804 33.943 29.5441 33.4061 27.3343C32.8691 25.1244 32.6007 22.3463 32.6007 19C32.6007 15.6221 32.8691 12.844 33.4061 10.6657C33.943 8.4559 34.8116 6.71959 36.0118 5.45682C37.212 4.19406 38.7755 3.31012 40.7021 2.80501C42.6604 2.26834 45.0292 2 47.8087 2ZM47.8087 9.62395C46.64 9.62395 45.7399 9.87651 45.1082 10.3816C44.4765 10.8867 44.0343 11.818 43.7816 13.1755C43.5289 14.533 43.4026 16.4745 43.4026 19C43.4026 21.5255 43.5289 23.467 43.7816 24.8245C44.0343 26.182 44.4765 27.1133 45.1082 27.6184C45.7399 28.1235 46.64 28.376 47.8087 28.376C48.9773 28.376 49.8775 28.1235 50.5091 27.6184C51.1408 27.1133 51.583 26.182 51.8357 24.8245C52.0884 23.467 52.2147 21.5255 52.2147 19C52.2147 16.4745 52.0884 14.533 51.8357 13.1755C51.583 11.818 51.1408 10.8867 50.5091 10.3816C49.8775 9.87651 48.9773 9.62395 47.8087 9.62395Z" stroke="white" stroke-width="3" mask="url(#path-1-outside-1_934_8774)"/>
<path d="M103.241 2.66295C105.547 2.66295 106.747 3.8468 106.842 6.21449L107.979 35.337H98.7403L97.7454 10.3343H97.0348L93.8131 27.0028C93.4973 29.0863 92.2023 30.1281 89.9282 30.1281H84.622C82.3795 30.1281 81.0687 29.0863 80.6897 27.0028L77.4207 10.3343H76.7101L75.9046 35.337H66.6662L67.8032 6.21449C67.8979 3.8468 69.0982 2.66295 71.4038 2.66295H80.2633C82.4742 2.66295 83.7692 3.72052 84.1482 5.83566L86.5171 18.8106C86.6434 19.5998 86.7382 20.4048 86.8013 21.2256C86.8961 22.0464 86.9751 22.8672 87.0382 23.688H87.4646C87.5594 22.8672 87.6383 22.0464 87.7015 21.2256C87.7962 20.4048 87.9068 19.5998 88.0331 18.8106L90.2599 5.83566C90.6389 3.72052 91.9496 2.66295 94.1921 2.66295H103.241Z" stroke="white" stroke-width="3" mask="url(#path-1-outside-1_934_8774)"/>
<path d="M137.493 2.66295L136.735 10.0028H122.995V35.337H112.715V2.66295C114.799 2.50511 116.884 2.4104 118.968 2.37883C121.053 2.31569 123.027 2.28412 124.891 2.28412C127.133 2.28412 129.281 2.31569 131.334 2.37883C133.418 2.44197 135.471 2.53668 137.493 2.66295ZM126.264 15.3064C129.644 15.3064 132.313 15.6063 134.271 16.2061C136.261 16.8059 137.682 17.8319 138.535 19.2841C139.388 20.7363 139.814 22.7725 139.814 25.3928C139.814 27.3816 139.562 29.0548 139.056 30.4123C138.582 31.7382 137.84 32.7957 136.829 33.585C135.85 34.3426 134.587 34.8951 133.039 35.2423C131.523 35.558 129.723 35.7159 127.638 35.7159C125.585 35.7159 123.722 35.7001 122.048 35.6685C120.406 35.6685 118.858 35.637 117.405 35.5738C115.952 35.5107 114.483 35.4318 112.999 35.337L113.71 28.4708C114.499 28.5023 116.015 28.5339 118.258 28.5655C120.532 28.597 123.201 28.6128 126.264 28.6128C127.18 28.6128 127.875 28.5181 128.349 28.3287C128.823 28.1393 129.139 27.792 129.297 27.2869C129.454 26.7502 129.533 26.0084 129.533 25.0613C129.533 24.0826 129.454 23.3408 129.297 22.8357C129.139 22.3305 128.823 21.9833 128.349 21.7939C127.875 21.6045 127.18 21.5097 126.264 21.5097H113.662V15.3064H126.264Z" stroke="white" stroke-width="3" mask="url(#path-1-outside-1_934_8774)"/>
<path d="M157.507 2C160.318 2 162.686 2.26834 164.613 2.80501C166.571 3.31012 168.151 4.19406 169.351 5.45682C170.551 6.71959 171.42 8.4559 171.957 10.6657C172.493 12.844 172.762 15.6221 172.762 19C172.762 22.3463 172.493 25.1244 171.957 27.3343C171.42 29.5441 170.551 31.2804 169.351 32.5432C168.151 33.8059 166.571 34.7057 164.613 35.2423C162.686 35.7474 160.318 36 157.507 36C154.727 36 152.358 35.7474 150.4 35.2423C148.473 34.7057 146.91 33.8059 145.71 32.5432C144.509 31.2804 143.641 29.5441 143.104 27.3343C142.567 25.1244 142.299 22.3463 142.299 19C142.299 15.6221 142.567 12.844 143.104 10.6657C143.641 8.4559 144.509 6.71959 145.71 5.45682C146.91 4.19406 148.473 3.31012 150.4 2.80501C152.358 2.26834 154.727 2 157.507 2ZM157.507 9.62395C156.338 9.62395 155.438 9.87651 154.806 10.3816C154.174 10.8867 153.732 11.818 153.48 13.1755C153.227 14.533 153.101 16.4745 153.101 19C153.101 21.5255 153.227 23.467 153.48 24.8245C153.732 26.182 154.174 27.1133 154.806 27.6184C155.438 28.1235 156.338 28.376 157.507 28.376C158.675 28.376 159.575 28.1235 160.207 27.6184C160.839 27.1133 161.281 26.182 161.534 24.8245C161.786 23.467 161.913 21.5255 161.913 19C161.913 16.4745 161.786 14.533 161.534 13.1755C161.281 11.818 160.839 10.8867 160.207 10.3816C159.575 9.87651 158.675 9.62395 157.507 9.62395Z" stroke="white" stroke-width="3" mask="url(#path-1-outside-1_934_8774)"/>
</g>
</svg>
