<svg width="50" height="70" viewBox="0 0 50 70" fill="none" xmlns="http://www.w3.org/2000/svg">
<path d="M50 25C50 43.75 25 62.5 25 62.5C25 62.5 0 43.75 0 25C0 18.3696 2.63392 12.0107 7.32233 7.32233C12.0107 2.63392 18.3696 0 25 0C31.6304 0 37.9893 2.63392 42.6777 7.32233C47.3661 12.0107 50 18.3696 50 25Z" fill="#EF7F1B"/>
<path d="M45.9676 25.6452C45.9676 41.25 24.7983 56.8549 24.7983 56.8549C24.7983 56.8549 3.62891 41.25 3.62891 25.6452C3.62891 20.127 5.85924 14.8348 9.82927 10.9328C13.7993 7.03085 19.1838 4.83875 24.7983 4.83875C30.4127 4.83875 35.7972 7.03085 39.7673 10.9328C43.7373 14.8348 45.9676 20.127 45.9676 25.6452Z" fill="white"/>
<path d="M42.5 26.25C42.5 39.375 25 52.5 25 52.5C25 52.5 7.5 39.375 7.5 26.25C7.5 21.6087 9.34374 17.1575 12.6256 13.8756C15.9075 10.5937 20.3587 8.75 25 8.75C29.6413 8.75 34.0925 10.5937 37.3744 13.8756C40.6563 17.1575 42.5 21.6087 42.5 26.25Z" fill="#242424"/>
<path d="M19.0476 19.3116V35H15.5916V19.3116H19.0476ZM34.6676 19.3116L30.575 25.6324C30.4082 25.9053 30.2263 26.1402 30.0293 26.3373C29.8322 26.5343 29.6352 26.7011 29.4381 26.8375V26.9057C29.6503 27.0269 29.8777 27.2088 30.1202 27.4514C30.3628 27.6939 30.5598 27.9516 30.7114 28.2244L34.9405 35H31.0525L26.2095 26.792L30.916 19.3116H34.6676ZM25.6866 19.3116V23.7453C25.6866 24.2606 25.6487 24.776 25.5729 25.2914C25.4971 25.7916 25.3758 26.2842 25.2091 26.7693C25.3303 27.2392 25.4365 27.7242 25.5274 28.2244C25.6335 28.7095 25.6866 29.1642 25.6866 29.5886V35H22.2306V19.3116H25.6866ZM27.46 25.6324V28.0425H24.6407V25.6324H27.46Z" fill="white"/>
<ellipse opacity="0.5" cx="25" cy="68.75" rx="7.5" ry="1.25" fill="#242424"/>
</svg>
