<svg width="100" height="100" viewBox="0 0 100 100" fill="none" xmlns="http://www.w3.org/2000/svg">
<circle cx="50" cy="50" r="50" fill="#EF7F1B"/>
<path d="M70.6654 40.6667C70.6654 56.1667 49.9987 71.6667 49.9987 71.6667C49.9987 71.6667 29.332 56.1667 29.332 40.6667C29.332 35.1855 31.5094 29.9289 35.3852 26.0531C39.2609 22.1774 44.5176 20 49.9987 20C55.4798 20 60.7365 22.1774 64.6122 26.0531C68.488 29.9289 70.6654 35.1855 70.6654 40.6667Z" fill="white"/>
<path d="M50 48.4167C54.2802 48.4167 57.75 44.947 57.75 40.6667C57.75 36.3865 54.2802 32.9167 50 32.9167C45.7198 32.9167 42.25 36.3865 42.25 40.6667C42.25 44.947 45.7198 48.4167 50 48.4167Z" fill="#EF7F1B"/>
<path d="M35 77L65 77" stroke="white" stroke-width="2" stroke-linecap="round"/>
</svg>
